<svg baseProfile="tiny" height="100%" version="1.2" width="100%" xmlns="http://www.w3.org/2000/svg" xmlns:ev="http://www.w3.org/2001/xml-events" xmlns:xlink="http://www.w3.org/1999/xlink"><defs /><rect fill="none" height="1" stroke="none" width="10" x="364" y="985" /><rect fill="none" height="3" stroke="none" width="2" x="566" y="984" /><rect fill="#f2fef1" height="24" stroke="none" width="33" x="403" y="963" /><rect fill="#239823" height="26" stroke="none" width="11" x="352" y="960" /><rect fill="none" height="7" stroke="none" width="9" x="519" y="958" /><rect fill="#f1fef4" height="27" stroke="none" width="20" x="331" y="958" /><rect fill="none" height="6" stroke="none" width="2" x="608" y="952" /><rect fill="#f7fef5" height="36" stroke="none" width="34" x="613" y="950" /><rect fill="#f2fff0" height="36" stroke="none" width="31" x="770" y="950" /><rect fill="#f3fff1" height="36" stroke="none" width="31" x="735" y="950" /><rect fill="#f5fef3" height="36" stroke="none" width="36" x="698" y="950" /><rect fill="#f2fff1" height="36" stroke="none" width="29" x="666" y="950" /><rect fill="#f3fff1" height="36" stroke="none" width="31" x="579" y="950" /><rect fill="#f4fff3" height="36" stroke="none" width="34" x="542" y="950" /><rect fill="#f5fef3" height="36" stroke="none" width="77" x="467" y="950" /><rect fill="#f3fff2" height="36" stroke="none" width="35" x="436" y="950" /><rect fill="#f3fff3" height="35" stroke="none" width="34" x="352" y="950" /><rect fill="#f3fff1" height="36" stroke="none" width="31" x="319" y="950" /><rect fill="#f1fef1" height="30" stroke="none" width="31" x="404" y="949" /><rect fill="#f1fef2" height="38" stroke="none" width="37" x="278" y="949" /><rect fill="none" height="2" stroke="none" width="1" x="413" y="801" /><rect fill="none" height="1" stroke="none" width="1" x="495" y="800" /><rect fill="none" height="7" stroke="none" width="11" x="485" y="800" /><rect fill="none" height="17" stroke="none" width="10" x="182" y="794" /><rect fill="none" height="6" stroke="none" width="10" x="555" y="791" /><rect fill="#f5f9ff" height="24" stroke="none" width="21" x="549" y="787" /><rect fill="none" height="6" stroke="none" width="10" x="464" y="791" /><rect fill="#f5fbff" height="24" stroke="none" width="21" x="458" y="787" /><rect fill="#222935" height="16" stroke="none" width="12" x="255" y="791" /><rect fill="#f4faff" height="24" stroke="none" width="21" x="250" y="787" /><rect fill="#212936" height="29" stroke="none" width="31" x="392" y="790" /><rect fill="#262a31" height="22" stroke="none" width="6" x="384" y="788" /><rect fill="#20283a" height="21" stroke="none" width="20" x="392" y="782" /><rect fill="#f4fbff" height="23" stroke="none" width="18" x="515" y="788" /><rect fill="none" height="12" stroke="none" width="9" x="414" y="788" /><rect fill="#f4faff" height="23" stroke="none" width="19" x="340" y="788" /><rect fill="#f4fbff" height="24" stroke="none" width="19" x="571" y="787" /><rect fill="#212835" height="23" stroke="none" width="13" x="537" y="787" /><rect fill="#f4fcff" height="24" stroke="none" width="20" x="481" y="787" /><rect fill="#f6fbff" height="23" stroke="none" width="19" x="362" y="787" /><rect fill="#f5fcff" height="23" stroke="none" width="30" x="307" y="787" /><rect fill="#f6fbff" height="23" stroke="none" width="30" x="273" y="787" /><rect fill="#f1f9fd" height="28" stroke="none" width="11" x="502" y="782" /><rect fill="#212a38" height="30" stroke="none" width="21" x="436" y="780" /><rect fill="none" height="6" stroke="none" width="6" x="384" y="780" /><rect fill="#1d2a3b" height="29" stroke="none" width="16" x="192" y="780" /><rect fill="#1f2936" height="32" stroke="none" width="27" x="222" y="779" /><rect fill="none" height="1" stroke="none" width="7" x="558" y="736" /><rect fill="none" height="6" stroke="none" width="11" x="556" y="731" /><rect fill="none" height="6" stroke="none" width="12" x="299" y="736" /><rect fill="none" height="17" stroke="none" width="10" x="182" y="734" /><rect fill="#252837" height="15" stroke="none" width="11" x="686" y="731" /><rect fill="#f5faff" height="32" stroke="none" width="20" x="681" y="727" /><rect fill="none" height="6" stroke="none" width="11" x="591" y="731" /><rect fill="#f7fcff" height="24" stroke="none" width="21" x="586" y="727" /><rect fill="#252834" height="16" stroke="none" width="12" x="500" y="731" /><rect fill="#f5faff" height="24" stroke="none" width="21" x="495" y="727" /><rect fill="#222934" height="16" stroke="none" width="11" x="438" y="731" /><rect fill="#f4fcff" height="24" stroke="none" width="21" x="433" y="727" /><rect fill="none" height="6" stroke="none" width="10" x="417" y="731" /><rect fill="#f6fcff" height="24" stroke="none" width="21" x="411" y="727" /><rect fill="#262a35" height="16" stroke="none" width="11" x="393" y="731" /><rect fill="#f5fdff" height="20" stroke="none" width="11" x="288" y="730" /><rect fill="none" height="8" stroke="none" width="11" x="288" y="722" /><rect fill="#f8fcff" height="22" stroke="none" width="6" x="651" y="728" /><rect fill="#222835" height="23" stroke="none" width="19" x="660" y="727" /><rect fill="none" height="6" stroke="none" width="6" x="651" y="720" /><rect fill="#f8fcff" height="22" stroke="none" width="6" x="381" y="728" /><rect fill="#fcffff" height="22" stroke="none" width="6" x="313" y="728" /><rect fill="#f3fcff" height="23" stroke="none" width="19" x="322" y="727" /><rect fill="none" height="6" stroke="none" width="6" x="313" y="720" /><rect fill="#f7fdfe" height="22" stroke="none" width="6" x="271" y="728" /><rect fill="none" height="6" stroke="none" width="6" x="271" y="720" /><rect fill="#f4fbff" height="23" stroke="none" width="19" x="249" y="728" /><rect fill="#f5faff" height="24" stroke="none" width="20" x="630" y="727" /><rect fill="#f5fcff" height="23" stroke="none" width="19" x="609" y="727" /><rect fill="#212835" height="23" stroke="none" width="13" x="574" y="727" /><rect fill="#f5fbff" height="24" stroke="none" width="20" x="551" y="727" /><rect fill="#242837" height="23" stroke="none" width="19" x="518" y="727" /><rect fill="#f4faff" height="31" stroke="none" width="20" x="389" y="720" /><rect fill="#212838" height="30" stroke="none" width="33" x="354" y="720" /><rect fill="#f7fdff" height="30" stroke="none" width="6" x="280" y="720" /><rect fill="#f5faff" height="30" stroke="none" width="23" x="223" y="720" /><rect fill="#20293a" height="29" stroke="none" width="16" x="192" y="720" /><rect fill="#f6fbff" height="31" stroke="none" width="14" x="538" y="719" /><rect fill="#20293a" height="32" stroke="none" width="27" x="467" y="719" /><rect fill="none" height="1" stroke="none" width="7" x="302" y="676" /><rect fill="none" height="6" stroke="none" width="11" x="300" y="671" /><rect fill="none" height="17" stroke="none" width="10" x="182" y="674" /><rect fill="none" height="6" stroke="none" width="11" x="578" y="671" /><rect fill="#f4fcff" height="24" stroke="none" width="20" x="573" y="667" /><rect fill="#f7feff" height="16" stroke="none" width="11" x="516" y="671" /><rect fill="none" height="6" stroke="none" width="11" x="494" y="671" /><rect fill="#f3faff" height="24" stroke="none" width="20" x="489" y="667" /><rect fill="#fafdff" height="22" stroke="none" width="5" x="554" y="668" /><rect fill="#f9fcff" height="29" stroke="none" width="12" x="561" y="661" /><rect fill="none" height="6" stroke="none" width="5" x="554" y="660" /><rect fill="#f7fcff" height="22" stroke="none" width="5" x="358" y="668" /><rect fill="#f6fbff" height="24" stroke="none" width="21" x="365" y="667" /><rect fill="none" height="6" stroke="none" width="5" x="358" y="660" /><rect fill="#f6fbff" height="24" stroke="none" width="19" x="533" y="667" /><rect fill="#f6fbff" height="24" stroke="none" width="20" x="410" y="667" /><rect fill="#f5fcff" height="23" stroke="none" width="18" x="389" y="667" /><rect fill="#f5faff" height="24" stroke="none" width="18" x="337" y="667" /><rect fill="#f6fbff" height="24" stroke="none" width="18" x="317" y="667" /><rect fill="#f4faff" height="24" stroke="none" width="20" x="295" y="667" /><rect fill="#f5fbff" height="24" stroke="none" width="21" x="261" y="667" /><rect fill="#232936" height="23" stroke="none" width="13" x="249" y="667" /><rect fill="#f4fbff" height="31" stroke="none" width="19" x="512" y="660" /><rect fill="#f5fbff" height="30" stroke="none" width="38" x="451" y="660" /><rect fill="#f7fcff" height="30" stroke="none" width="5" x="433" y="660" /><rect fill="#f6fcff" height="30" stroke="none" width="24" x="223" y="660" /><rect fill="#21283d" height="29" stroke="none" width="16" x="192" y="660" /><rect fill="#f4fbfe" height="31" stroke="none" width="14" x="282" y="659" /><rect fill="none" height="17" stroke="none" width="10" x="182" y="614" /><rect fill="none" height="14" stroke="none" width="1" x="459" y="612" /><rect fill="#f9fcff" height="22" stroke="none" width="5" x="460" y="608" /><rect fill="#f5faff" height="24" stroke="none" width="21" x="467" y="607" /><rect fill="#232a35" height="16" stroke="none" width="12" x="568" y="611" /><rect fill="#f5fbff" height="24" stroke="none" width="21" x="564" y="607" /><rect fill="none" height="6" stroke="none" width="10" x="409" y="611" /><rect fill="#f6faff" height="23" stroke="none" width="21" x="403" y="608" /><rect fill="none" height="6" stroke="none" width="10" x="334" y="611" /><rect fill="#f5faff" height="24" stroke="none" width="21" x="328" y="607" /><rect fill="#242833" height="16" stroke="none" width="12" x="255" y="611" /><rect fill="#f6fbff" height="24" stroke="none" width="21" x="250" y="607" /><rect fill="#21283b" height="23" stroke="none" width="19" x="273" y="608" /><rect fill="#f4faff" height="24" stroke="none" width="18" x="595" y="607" /><rect fill="#f5faff" height="24" stroke="none" width="22" x="541" y="607" /><rect fill="#f4fdff" height="23" stroke="none" width="19" x="490" y="607" /><rect fill="#f4f9ff" height="24" stroke="none" width="21" x="425" y="607" /><rect fill="#242834" height="23" stroke="none" width="13" x="391" y="607" /><rect fill="#f5fbff" height="24" stroke="none" width="19" x="308" y="607" /><rect fill="#f6fbff" height="23" stroke="none" width="13" x="296" y="607" /><rect fill="#f7fcff" height="28" stroke="none" width="12" x="446" y="602" /><rect fill="#f9fcff" height="30" stroke="none" width="5" x="587" y="600" /><rect fill="#1e2a3a" height="30" stroke="none" width="25" x="521" y="600" /><rect fill="none" height="6" stroke="none" width="6" x="459" y="600" /><rect fill="#212a3a" height="29" stroke="none" width="16" x="192" y="600" /><rect fill="#202837" height="32" stroke="none" width="27" x="361" y="599" /><rect fill="#1f293a" height="32" stroke="none" width="27" x="222" y="599" /><rect fill="none" height="1" stroke="none" width="10" x="420" y="346" /><rect fill="none" height="17" stroke="none" width="6" x="426" y="329" /><rect fill="#fcfcfe" height="21" stroke="none" width="8" x="418" y="326" /><rect fill="#feffff" height="47" stroke="none" width="40" x="770" y="327" /><rect fill="#060815" height="14" stroke="none" width="19" x="697" y="318" /><rect fill="#feffff" height="70" stroke="none" width="79" x="748" y="304" /><rect fill="#fefeff" height="70" stroke="none" width="70" x="674" y="304" /><rect fill="#fdfffe" height="70" stroke="none" width="55" x="530" y="304" /><rect fill="#fefefe" height="70" stroke="none" width="67" x="456" y="304" /><rect fill="#feffff" height="70" stroke="none" width="75" x="388" y="304" /><rect fill="#fefeff" height="70" stroke="none" width="57" x="329" y="304" /><rect fill="#feffff" height="70" stroke="none" width="60" x="260" y="304" /><rect fill="#fefffe" height="72" stroke="none" width="73" x="592" y="303" /><rect fill="#fefeff" height="70" stroke="none" width="68" x="671" y="190" /><rect fill="#fefeff" height="70" stroke="none" width="23" x="635" y="190" /><rect fill="#feffff" height="70" stroke="none" width="68" x="554" y="190" /><rect fill="#fefffe" height="70" stroke="none" width="75" x="401" y="190" /><rect fill="#feffff" height="70" stroke="none" width="60" x="337" y="190" /><rect fill="#feffff" height="70" stroke="none" width="67" x="263" y="190" /><rect fill="#fefefe" height="72" stroke="none" width="72" x="748" y="189" /><rect fill="#fefeff" height="72" stroke="none" width="68" x="477" y="189" /><rect fill="#080812" height="21" stroke="none" width="14" x="246" y="96" /><rect fill="#080615" height="14" stroke="none" width="19" x="890" y="88" /><rect fill="#fefffe" height="70" stroke="none" width="70" x="867" y="74" /><rect fill="#fefefe" height="71" stroke="none" width="68" x="787" y="74" /><rect fill="#fefffe" height="70" stroke="none" width="75" x="633" y="74" /><rect fill="#feffff" height="70" stroke="none" width="67" x="527" y="74" /><rect fill="#fefffe" height="70" stroke="none" width="67" x="373" y="74" /><rect fill="#fefffd" height="71" stroke="none" width="68" x="293" y="74" /><rect fill="#fefefe" height="70" stroke="none" width="75" x="216" y="74" /><rect fill="#feffff" height="70" stroke="none" width="56" x="158" y="74" /><rect fill="#feffff" height="72" stroke="none" width="73" x="705" y="73" /><rect fill="#feffff" height="72" stroke="none" width="68" x="450" y="73" /></svg>