<?xml version="1.0" encoding="utf-8" ?>
<svg baseProfile="tiny" height="100%" version="1.2" width="100%" xmlns="http://www.w3.org/2000/svg" xmlns:ev="http://www.w3.org/2001/xml-events" xmlns:xlink="http://www.w3.org/1999/xlink"><defs /><rect fill="none" height="11" stroke="black" width="11" x="145" y="1065" /><rect fill="none" height="11" stroke="black" width="10" x="121" y="1065" /><rect fill="none" height="11" stroke="black" width="11" x="96" y="1065" /><rect fill="none" height="11" stroke="black" width="11" x="71" y="1065" /><rect fill="none" height="11" stroke="black" width="11" x="47" y="1065" /><rect fill="none" height="11" stroke="black" width="11" x="22" y="1065" /><rect fill="none" height="11" stroke="black" width="8" x="0" y="1065" /><rect fill="none" height="10" stroke="black" width="11" x="170" y="1041" /><rect fill="none" height="10" stroke="black" width="10" x="146" y="1041" /><rect fill="none" height="10" stroke="black" width="10" x="121" y="1041" /><rect fill="none" height="10" stroke="black" width="11" x="96" y="1041" /><rect fill="none" height="10" stroke="black" width="10" x="72" y="1041" /><rect fill="none" height="10" stroke="black" width="10" x="47" y="1041" /><rect fill="none" height="10" stroke="black" width="11" x="22" y="1041" /><rect fill="none" height="10" stroke="black" width="8" x="0" y="1041" /><rect fill="none" height="14" stroke="black" width="431" x="615" y="1031" /><rect fill="none" height="10" stroke="black" width="11" x="71" y="1017" /><rect fill="none" height="10" stroke="black" width="8" x="0" y="1017" /><rect fill="none" height="11" stroke="black" width="10" x="195" y="1016" /><rect fill="none" height="11" stroke="black" width="11" x="170" y="1016" /><rect fill="none" height="11" stroke="black" width="11" x="145" y="1016" /><rect fill="none" height="11" stroke="black" width="10" x="121" y="1016" /><rect fill="none" height="11" stroke="black" width="11" x="96" y="1016" /><rect fill="none" height="11" stroke="black" width="11" x="47" y="1016" /><rect fill="none" height="11" stroke="black" width="11" x="22" y="1016" /><rect fill="none" height="1" stroke="black" width="1" x="939" y="1014" /><rect fill="none" height="6" stroke="black" width="6" x="996" y="1008" /><rect fill="none" height="6" stroke="black" width="7" x="723" y="1008" /><rect fill="none" height="17" stroke="black" width="15" x="916" y="997" /><rect fill="none" height="11" stroke="black" width="11" x="219" y="992" /><rect fill="none" height="11" stroke="black" width="10" x="195" y="992" /><rect fill="none" height="11" stroke="black" width="11" x="170" y="992" /><rect fill="none" height="11" stroke="black" width="11" x="145" y="992" /><rect fill="none" height="11" stroke="black" width="11" x="121" y="992" /><rect fill="none" height="11" stroke="black" width="11" x="96" y="992" /><rect fill="none" height="11" stroke="black" width="11" x="71" y="992" /><rect fill="none" height="11" stroke="black" width="11" x="47" y="992" /><rect fill="none" height="11" stroke="black" width="11" x="22" y="992" /><rect fill="none" height="27" stroke="black" width="7" x="1033" y="987" /><rect fill="none" height="27" stroke="black" width="26" x="1005" y="987" /><rect fill="none" height="27" stroke="black" width="24" x="968" y="987" /><rect fill="none" height="27" stroke="black" width="25" x="941" y="987" /><rect fill="none" height="27" stroke="black" width="30" x="909" y="987" /><rect fill="none" height="27" stroke="black" width="22" x="884" y="987" /><rect fill="none" height="27" stroke="black" width="24" x="858" y="987" /><rect fill="none" height="27" stroke="black" width="19" x="836" y="987" /><rect fill="none" height="27" stroke="black" width="22" x="812" y="987" /><rect fill="none" height="27" stroke="black" width="16" x="793" y="987" /><rect fill="none" height="27" stroke="black" width="16" x="786" y="987" /><rect fill="none" height="28" stroke="black" width="26" x="757" y="987" /><rect fill="none" height="28" stroke="black" width="24" x="731" y="987" /><rect fill="none" height="27" stroke="black" width="18" x="706" y="987" /><rect fill="none" height="18" stroke="black" width="14" x="699" y="987" /><rect fill="none" height="27" stroke="black" width="17" x="688" y="987" /><rect fill="none" height="27" stroke="black" width="19" x="668" y="987" /><rect fill="none" height="27" stroke="black" width="25" x="650" y="987" /><rect fill="none" height="18" stroke="black" width="13" x="624" y="987" /><rect fill="none" height="27" stroke="black" width="36" x="612" y="987" /><rect fill="none" height="11" stroke="black" width="11" x="219" y="968" /><rect fill="none" height="11" stroke="black" width="10" x="195" y="968" /><rect fill="none" height="11" stroke="black" width="11" x="170" y="968" /><rect fill="none" height="11" stroke="black" width="11" x="145" y="968" /><rect fill="none" height="11" stroke="black" width="10" x="121" y="968" /><rect fill="none" height="11" stroke="black" width="11" x="96" y="968" /><rect fill="none" height="11" stroke="black" width="11" x="71" y="968" /><rect fill="none" height="11" stroke="black" width="11" x="47" y="968" /><rect fill="none" height="10" stroke="black" width="11" x="219" y="944" /><rect fill="none" height="10" stroke="black" width="10" x="195" y="944" /><rect fill="none" height="10" stroke="black" width="11" x="170" y="944" /><rect fill="none" height="10" stroke="black" width="10" x="146" y="944" /><rect fill="none" height="10" stroke="black" width="10" x="121" y="944" /><rect fill="none" height="10" stroke="black" width="11" x="96" y="944" /><rect fill="none" height="10" stroke="black" width="10" x="72" y="944" /><rect fill="none" height="6" stroke="black" width="246" x="834" y="891" /><rect fill="none" height="20" stroke="black" width="718" x="362" y="891" /><rect fill="none" height="8" stroke="black" width="8" x="784" y="880" /><rect fill="none" height="4" stroke="black" width="5" x="781" y="879" /><rect fill="none" height="9" stroke="black" width="41" x="737" y="879" /><rect fill="none" height="7" stroke="black" width="37" x="739" y="878" /><rect fill="none" height="1" stroke="black" width="1" x="532" y="854" /><rect fill="none" height="1" stroke="black" width="1" x="579" y="853" /><rect fill="none" height="2" stroke="black" width="1" x="892" y="849" /><rect fill="none" height="5" stroke="black" width="10" x="492" y="848" /><rect fill="none" height="5" stroke="black" width="9" x="480" y="848" /><rect fill="none" height="7" stroke="black" width="17" x="1019" y="845" /><rect fill="none" height="7" stroke="black" width="8" x="910" y="845" /><rect fill="none" height="8" stroke="black" width="19" x="890" y="845" /><rect fill="none" height="7" stroke="black" width="18" x="631" y="845" /><rect fill="none" height="7" stroke="black" width="9" x="621" y="845" /><rect fill="none" height="9" stroke="black" width="15" x="556" y="845" /><rect fill="none" height="8" stroke="black" width="3" x="1065" y="844" /><rect fill="none" height="2" stroke="black" width="8" x="597" y="844" /><rect fill="none" height="8" stroke="black" width="4" x="550" y="844" /><rect fill="none" height="10" stroke="black" width="9" x="1047" y="843" /><rect fill="none" height="6" stroke="black" width="2" x="547" y="841" /><rect fill="none" height="5" stroke="black" width="15" x="484" y="841" /><rect fill="none" height="5" stroke="black" width="9" x="473" y="841" /><rect fill="none" height="5" stroke="black" width="7" x="590" y="838" /><rect fill="none" height="3" stroke="black" width="11" x="540" y="837" /><rect fill="none" height="29" stroke="black" width="22" x="586" y="825" /><rect fill="none" height="27" stroke="black" width="18" x="537" y="824" /><rect fill="none" height="1" stroke="black" width="2" x="488" y="818" /><rect fill="none" height="2" stroke="black" width="5" x="474" y="817" /><rect fill="none" height="4" stroke="black" width="4" x="598" y="814" /><rect fill="none" height="9" stroke="black" width="11" x="594" y="812" /><rect fill="none" height="1" stroke="black" width="6" x="595" y="810" /><rect fill="none" height="12" stroke="black" width="34" x="465" y="810" /><rect fill="none" height="12" stroke="black" width="8" x="562" y="802" /><rect fill="none" height="14" stroke="black" width="17" x="472" y="799" /><rect fill="none" height="4" stroke="black" width="16" x="1012" y="797" /><rect fill="none" height="2" stroke="black" width="11" x="1017" y="796" /><rect fill="none" height="4" stroke="black" width="4" x="561" y="796" /><rect fill="none" height="5" stroke="black" width="4" x="471" y="796" /><rect fill="none" height="7" stroke="black" width="23" x="987" y="795" /><rect fill="none" height="23" stroke="black" width="14" x="594" y="791" /><rect fill="none" height="31" stroke="black" width="54" x="481" y="791" /><rect fill="none" height="1" stroke="black" width="30" x="469" y="791" /><rect fill="none" height="22" stroke="black" width="11" x="546" y="786" /><rect fill="none" height="4" stroke="black" width="93" x="830" y="785" /><rect fill="none" height="5" stroke="black" width="26" x="1005" y="779" /><rect fill="none" height="7" stroke="black" width="22" x="982" y="778" /><rect fill="none" height="1" stroke="black" width="1" x="906" y="778" /><rect fill="none" height="7" stroke="black" width="17" x="829" y="776" /><rect fill="none" height="7" stroke="black" width="23" x="579" y="776" /><rect fill="none" height="8" stroke="black" width="36" x="887" y="775" /><rect fill="none" height="8" stroke="black" width="43" x="845" y="775" /><rect fill="none" height="7" stroke="black" width="26" x="471" y="773" /><rect fill="none" height="10" stroke="black" width="24" x="506" y="772" /><rect fill="none" height="14" stroke="black" width="41" x="547" y="769" /><rect fill="none" height="6" stroke="black" width="10" x="549" y="769" /><rect fill="none" height="8" stroke="black" width="9" x="561" y="767" /><rect fill="none" height="6" stroke="black" width="8" x="547" y="767" /><rect fill="none" height="61" stroke="black" width="70" x="538" y="761" /><rect fill="none" height="4" stroke="black" width="5" x="597" y="751" /><rect fill="none" height="5" stroke="black" width="9" x="586" y="751" /><rect fill="none" height="19" stroke="black" width="39" x="1024" y="750" /><rect fill="none" height="19" stroke="black" width="39" x="982" y="750" /><rect fill="none" height="11" stroke="black" width="17" x="469" y="745" /><rect fill="none" height="6" stroke="black" width="2" x="1069" y="735" /><rect fill="none" height="14" stroke="black" width="27" x="506" y="735" /><rect fill="none" height="21" stroke="black" width="4" x="504" y="735" /><rect fill="none" height="4" stroke="black" width="2" x="474" y="735" /><rect fill="none" height="4" stroke="black" width="1" x="472" y="735" /><rect fill="none" height="6" stroke="black" width="12" x="515" y="731" /><rect fill="none" height="18" stroke="black" width="39" x="1024" y="729" /><rect fill="none" height="18" stroke="black" width="39" x="982" y="729" /><rect fill="none" height="17" stroke="black" width="27" x="469" y="728" /><rect fill="none" height="4" stroke="black" width="15" x="469" y="724" /><rect fill="none" height="10" stroke="black" width="26" x="507" y="719" /><rect fill="none" height="6" stroke="black" width="48" x="982" y="717" /><rect fill="none" height="26" stroke="black" width="19" x="586" y="716" /><rect fill="none" height="3" stroke="black" width="2" x="587" y="713" /><rect fill="none" height="13" stroke="black" width="2" x="585" y="709" /><rect fill="none" height="23" stroke="black" width="29" x="504" y="709" /><rect fill="none" height="76" stroke="black" width="38" x="699" y="706" /><rect fill="none" height="8" stroke="black" width="5" x="528" y="701" /><rect fill="none" height="6" stroke="black" width="22" x="1001" y="699" /><rect fill="none" height="25" stroke="black" width="9" x="595" y="698" /><rect fill="none" height="61" stroke="black" width="70" x="538" y="698" /><rect fill="none" height="61" stroke="black" width="71" x="465" y="698" /><rect fill="none" height="4" stroke="black" width="12" x="520" y="689" /><rect fill="none" height="6" stroke="black" width="34" x="983" y="686" /><rect fill="none" height="7" stroke="black" width="17" x="1017" y="685" /><rect fill="none" height="338" stroke="black" width="175" x="0" y="677" /><rect fill="none" height="6" stroke="black" width="4" x="612" y="672" /><rect fill="none" height="5" stroke="black" width="6" x="521" y="672" /><rect fill="none" height="10" stroke="black" width="28" x="468" y="653" /><rect fill="none" height="36" stroke="black" width="34" x="498" y="650" /><rect fill="none" height="28" stroke="black" width="24" x="509" y="649" /><rect fill="none" height="1" stroke="black" width="1" x="765" y="646" /><rect fill="none" height="4" stroke="black" width="2" x="747" y="643" /><rect fill="none" height="5" stroke="black" width="1" x="745" y="643" /><rect fill="none" height="4" stroke="black" width="3" x="721" y="643" /><rect fill="none" height="5" stroke="black" width="6" x="780" y="641" /><rect fill="none" height="10" stroke="black" width="91" x="711" y="640" /><rect fill="none" height="12" stroke="black" width="11" x="787" y="635" /><rect fill="none" height="62" stroke="black" width="71" x="537" y="634" /><rect fill="none" height="61" stroke="black" width="70" x="465" y="634" /><rect fill="none" height="2" stroke="black" width="3" x="790" y="632" /><rect fill="none" height="8" stroke="black" width="3" x="782" y="632" /><rect fill="none" height="7" stroke="black" width="1" x="794" y="628" /><rect fill="none" height="9" stroke="black" width="28" x="742" y="627" /><rect fill="none" height="9" stroke="black" width="30" x="720" y="627" /><rect fill="none" height="8" stroke="black" width="7" x="711" y="627" /><rect fill="none" height="9" stroke="black" width="11" x="594" y="622" /><rect fill="none" height="1" stroke="black" width="2" x="764" y="619" /><rect fill="none" height="3" stroke="black" width="22" x="581" y="619" /><rect fill="none" height="6" stroke="black" width="8" x="763" y="618" /><rect fill="none" height="19" stroke="black" width="26" x="772" y="616" /><rect fill="none" height="9" stroke="black" width="18" x="755" y="616" /><rect fill="none" height="9" stroke="black" width="42" x="711" y="616" /><rect fill="none" height="5" stroke="black" width="17" x="543" y="616" /><rect fill="none" height="6" stroke="black" width="3" x="600" y="612" /><rect fill="none" height="7" stroke="black" width="10" x="573" y="607" /><rect fill="none" height="21" stroke="black" width="4" x="502" y="606" /><rect fill="none" height="8" stroke="black" width="1" x="799" y="599" /><rect fill="none" height="8" stroke="black" width="19" x="544" y="599" /><rect fill="none" height="14" stroke="black" width="12" x="711" y="596" /><rect fill="none" height="16" stroke="black" width="22" x="823" y="595" /><rect fill="none" height="16" stroke="black" width="38" x="785" y="595" /><rect fill="none" height="16" stroke="black" width="22" x="762" y="595" /><rect fill="none" height="16" stroke="black" width="37" x="721" y="595" /><rect fill="none" height="20" stroke="black" width="17" x="583" y="593" /><rect fill="none" height="4" stroke="black" width="2" x="786" y="591" /><rect fill="none" height="4" stroke="black" width="1" x="784" y="591" /><rect fill="none" height="9" stroke="black" width="11" x="560" y="590" /><rect fill="none" height="3" stroke="black" width="4" x="549" y="590" /><rect fill="none" height="9" stroke="black" width="23" x="543" y="590" /><rect fill="none" height="7" stroke="black" width="6" x="771" y="582" /><rect fill="none" height="1" stroke="black" width="45" x="821" y="581" /><rect fill="none" height="1" stroke="black" width="1" x="797" y="581" /><rect fill="none" height="9" stroke="black" width="10" x="579" y="581" /><rect fill="none" height="13" stroke="black" width="23" x="543" y="580" /><rect fill="none" height="8" stroke="black" width="10" x="784" y="579" /><rect fill="none" height="5" stroke="black" width="4" x="717" y="579" /><rect fill="none" height="16" stroke="black" width="24" x="796" y="574" /><rect fill="none" height="16" stroke="black" width="23" x="774" y="574" /><rect fill="none" height="15" stroke="black" width="7" x="766" y="574" /><rect fill="none" height="16" stroke="black" width="53" x="711" y="574" /><rect fill="none" height="32" stroke="black" width="10" x="488" y="574" /><rect fill="none" height="61" stroke="black" width="28" x="508" y="571" /><rect fill="none" height="62" stroke="black" width="36" x="465" y="571" /><rect fill="none" height="179" stroke="black" width="215" x="783" y="555" /><rect fill="none" height="6" stroke="black" width="3" x="604" y="553" /><rect fill="none" height="6" stroke="black" width="12" x="589" y="553" /><rect fill="none" height="8" stroke="black" width="28" x="558" y="553" /><rect fill="none" height="6" stroke="black" width="12" x="532" y="553" /><rect fill="none" height="8" stroke="black" width="27" x="502" y="553" /><rect fill="none" height="6" stroke="black" width="29" x="471" y="553" /><rect fill="none" height="4" stroke="black" width="77" x="466" y="536" /><rect fill="none" height="6" stroke="black" width="30" x="490" y="527" /><rect fill="none" height="8" stroke="black" width="19" x="565" y="526" /><rect fill="none" height="6" stroke="black" width="8" x="846" y="506" /><rect fill="none" height="7" stroke="black" width="8" x="881" y="505" /><rect fill="none" height="7" stroke="black" width="10" x="864" y="505" /><rect fill="none" height="8" stroke="black" width="8" x="830" y="505" /><rect fill="none" height="7" stroke="black" width="6" x="816" y="505" /><rect fill="none" height="7" stroke="black" width="8" x="798" y="505" /><rect fill="none" height="7" stroke="black" width="7" x="781" y="505" /><rect fill="none" height="8" stroke="black" width="6" x="764" y="505" /><rect fill="none" height="6" stroke="black" width="9" x="513" y="505" /><rect fill="none" height="6" stroke="black" width="8" x="504" y="505" /><rect fill="none" height="7" stroke="black" width="21" x="483" y="505" /><rect fill="none" height="8" stroke="black" width="8" x="579" y="504" /><rect fill="none" height="11" stroke="black" width="10" x="747" y="503" /><rect fill="none" height="10" stroke="black" width="8" x="594" y="503" /><rect fill="none" height="9" stroke="black" width="9" x="470" y="502" /><rect fill="none" height="4" stroke="black" width="4" x="913" y="499" /><rect fill="none" height="364" stroke="black" width="611" x="460" y="493" /><rect fill="none" height="2" stroke="black" width="566" x="514" y="445" /><rect fill="none" height="2" stroke="black" width="4" x="1076" y="443" /><rect fill="none" height="11" stroke="black" width="11" x="409" y="414" /><rect fill="none" height="21" stroke="black" width="20" x="302" y="403" /><rect fill="none" height="36" stroke="black" width="11" x="461" y="388" /><rect fill="none" height="37" stroke="black" width="37" x="422" y="388" /><rect fill="none" height="36" stroke="black" width="34" x="372" y="388" /><rect fill="none" height="37" stroke="black" width="36" x="335" y="388" /><rect fill="none" height="36" stroke="black" width="21" x="312" y="388" /><rect fill="none" height="36" stroke="black" width="21" x="290" y="388" /><rect fill="none" height="36" stroke="black" width="31" x="258" y="388" /><rect fill="none" height="36" stroke="black" width="34" x="222" y="388" /><rect fill="none" height="36" stroke="black" width="27" x="193" y="388" /><rect fill="none" height="36" stroke="black" width="31" x="160" y="388" /><rect fill="none" height="36" stroke="black" width="21" x="137" y="388" /><rect fill="none" height="36" stroke="black" width="21" x="125" y="388" /><rect fill="none" height="37" stroke="black" width="35" x="88" y="388" /><rect fill="none" height="37" stroke="black" width="33" x="53" y="388" /><rect fill="none" height="30" stroke="black" width="24" x="410" y="326" /><rect fill="none" height="30" stroke="black" width="23" x="383" y="326" /><rect fill="none" height="30" stroke="black" width="5" x="374" y="326" /><rect fill="none" height="30" stroke="black" width="38" x="333" y="326" /><rect fill="none" height="31" stroke="black" width="26" x="294" y="326" /><rect fill="none" height="30" stroke="black" width="24" x="266" y="326" /><rect fill="none" height="30" stroke="black" width="5" x="256" y="326" /><rect fill="none" height="30" stroke="black" width="23" x="229" y="326" /><rect fill="none" height="31" stroke="black" width="19" x="207" y="326" /><rect fill="none" height="30" stroke="black" width="23" x="180" y="326" /><rect fill="none" height="30" stroke="black" width="22" x="155" y="326" /><rect fill="none" height="30" stroke="black" width="26" x="126" y="326" /><rect fill="none" height="30" stroke="black" width="30" x="93" y="326" /><rect fill="none" height="31" stroke="black" width="24" x="55" y="326" /><rect fill="none" height="30" stroke="black" width="24" x="427" y="278" /><rect fill="none" height="31" stroke="black" width="27" x="396" y="278" /><rect fill="none" height="30" stroke="black" width="5" x="386" y="278" /><rect fill="none" height="30" stroke="black" width="24" x="359" y="278" /><rect fill="none" height="30" stroke="black" width="25" x="336" y="278" /><rect fill="none" height="31" stroke="black" width="19" x="314" y="278" /><rect fill="none" height="31" stroke="black" width="22" x="289" y="278" /><rect fill="none" height="31" stroke="black" width="25" x="259" y="278" /><rect fill="none" height="30" stroke="black" width="23" x="222" y="278" /><rect fill="none" height="30" stroke="black" width="24" x="194" y="278" /><rect fill="none" height="31" stroke="black" width="20" x="170" y="278" /><rect fill="none" height="30" stroke="black" width="24" x="143" y="278" /><rect fill="none" height="30" stroke="black" width="24" x="116" y="278" /><rect fill="none" height="31" stroke="black" width="27" x="85" y="278" /><rect fill="none" height="31" stroke="black" width="25" x="56" y="278" /><rect fill="none" height="15" stroke="black" width="21" x="294" y="215" /><rect fill="none" height="15" stroke="black" width="19" x="294" y="191" /><rect fill="none" height="57" stroke="black" width="55" x="42" y="183" /><rect fill="none" height="59" stroke="black" width="44" x="519" y="181" /><rect fill="none" height="59" stroke="black" width="51" x="462" y="181" /><rect fill="none" height="59" stroke="black" width="14" x="441" y="181" /><rect fill="none" height="60" stroke="black" width="49" x="333" y="181" /><rect fill="none" height="59" stroke="black" width="47" x="281" y="181" /><rect fill="none" height="59" stroke="black" width="47" x="212" y="181" /><rect fill="none" height="60" stroke="black" width="50" x="156" y="181" /><rect fill="none" height="24" stroke="black" width="55" x="42" y="181" /><rect fill="none" height="61" stroke="black" width="48" x="619" y="180" /><rect fill="none" height="61" stroke="black" width="48" x="567" y="180" /><rect fill="none" height="61" stroke="black" width="48" x="388" y="180" /><rect fill="none" height="61" stroke="black" width="56" x="95" y="180" /><rect fill="none" height="66" stroke="black" width="52" x="501" y="90" /><rect fill="none" height="66" stroke="black" width="57" x="440" y="90" /><rect fill="none" height="66" stroke="black" width="69" x="379" y="90" /><rect fill="none" height="66" stroke="black" width="38" x="339" y="90" /><rect fill="none" height="66" stroke="black" width="58" x="299" y="90" /><rect fill="none" height="66" stroke="black" width="57" x="174" y="90" /><rect fill="none" height="67" stroke="black" width="58" x="113" y="90" /><rect fill="none" height="66" stroke="black" width="69" x="46" y="90" /><rect fill="none" height="69" stroke="black" width="66" x="230" y="89" /><rect fill="none" height="11" stroke="black" width="10" x="132" y="57" /><rect fill="none" height="11" stroke="black" width="11" x="107" y="57" /><rect fill="none" height="11" stroke="black" width="11" x="82" y="57" /><rect fill="none" height="11" stroke="black" width="10" x="58" y="57" /><rect fill="none" height="11" stroke="black" width="11" x="33" y="57" /><rect fill="none" height="11" stroke="black" width="11" x="8" y="57" /><rect fill="none" height="10" stroke="black" width="11" x="156" y="33" /><rect fill="none" height="10" stroke="black" width="10" x="132" y="33" /><rect fill="none" height="10" stroke="black" width="11" x="107" y="33" /><rect fill="none" height="10" stroke="black" width="11" x="82" y="33" /><rect fill="none" height="10" stroke="black" width="10" x="58" y="33" /><rect fill="none" height="10" stroke="black" width="11" x="33" y="33" /><rect fill="none" height="10" stroke="black" width="11" x="8" y="33" /><rect fill="none" height="10" stroke="black" width="11" x="181" y="9" /><rect fill="none" height="11" stroke="black" width="11" x="156" y="8" /><rect fill="none" height="11" stroke="black" width="10" x="132" y="8" /><rect fill="none" height="11" stroke="black" width="11" x="107" y="8" /><rect fill="none" height="11" stroke="black" width="11" x="82" y="8" /><rect fill="none" height="11" stroke="black" width="10" x="58" y="8" /><rect fill="none" height="11" stroke="black" width="11" x="33" y="8" /><rect fill="none" height="11" stroke="black" width="11" x="8" y="8" /><rect fill="none" height="897" stroke="black" width="529" x="376" y="0" /></svg>